<svg viewBox="0 0 24 24" aria-hidden="true">
  <path d="M12 2C6.48 2 2 6.6 2 12.26c0 4.53 2.87 8.37 6.84 9.73.5.1.68-.22.68-.48
  0-.24-.01-.88-.01-1.73-2.78.62-3.37-1.37-3.37-1.37-.45-1.18-1.11-1.49-1.11-1.49
  -.91-.64.07-.63.07-.63 1 .07 1.53 1.07 1.53 1.07.9 1.57 2.36 1.12 2.94.86
  .09-.67.35-1.12.64-1.38-2.22-.26-4.56-1.14-4.56-5.08 0-1.12.39-2.03 1.03-2.74
  -.1-.26-.45-1.32.1-2.74 0 0 .84-.28 2.75 1.05A9.2 9.2 0 0 1 12 6.9c.85 0 1.71.12
  2.5.35 1.9-1.33 2.74-1.05 2.74-1.05.56 1.42.21 2.48.1 2.74.64.71 1.02 1.62
  1.02 2.74 0 3.95-2.34 4.82-4.58 5.08.36.32.69.94.69 1.9
  0 1.37-.01 2.47-.01 2.8 0 .26.18.59.69.48A10.26 10.26 0 0 0 22 12.26C22 6.6 17.52 2 12 2z"/>
</svg>